<svg width="109" height="28" viewBox="0 0 109 28" fill="none" xmlns="http://www.w3.org/2000/svg">
<path d="M42.3507 23.2792C40.998 23.2792 39.8143 23.0439 38.7998 22.5734C37.7999 22.0882 36.9618 21.4486 36.2854 20.6546C35.6091 19.8459 35.1018 18.9416 34.7636 17.9418C34.4254 16.9419 34.2563 15.92 34.2563 14.8761C34.2563 13.8468 34.4254 12.8323 34.7636 11.8324C35.1018 10.8326 35.6091 9.93564 36.2854 9.14164C36.9618 8.33294 37.7999 7.69333 38.7998 7.22282C39.8143 6.7523 40.998 6.51704 42.3507 6.51704C43.4829 6.51704 44.446 6.66408 45.24 6.95815C46.0487 7.23752 46.7177 7.60511 47.247 8.06093C47.791 8.50203 48.2248 8.9799 48.5483 9.49453C48.8865 9.99445 49.1364 10.4723 49.2982 10.9281C49.4599 11.3692 49.5628 11.7368 49.6069 12.0309C49.6657 12.3103 49.6952 12.45 49.6952 12.45H46.3207C46.3207 12.45 46.2913 12.3544 46.2325 12.1632C46.1883 11.9574 46.0928 11.7148 45.9457 11.4354C45.7987 11.1413 45.5781 10.8546 45.2841 10.5752C45.0047 10.2959 44.6224 10.0606 44.1372 9.86947C43.6667 9.66362 43.0785 9.5607 42.3727 9.5607C41.3582 9.5607 40.5054 9.82536 39.8143 10.3547C39.138 10.8693 38.6233 11.531 38.2704 12.3397C37.9323 13.1484 37.7632 13.9938 37.7632 14.8761C37.7632 15.7583 37.9323 16.6111 38.2704 17.4345C38.6233 18.2432 39.138 18.9122 39.8143 19.4415C40.5054 19.9562 41.3582 20.2135 42.3727 20.2135C43.0785 20.2135 43.6667 20.1179 44.1372 19.9268C44.6224 19.7356 45.0047 19.5003 45.2841 19.221C45.5781 18.9269 45.7987 18.6402 45.9457 18.3608C46.0928 18.0667 46.1883 17.8241 46.2325 17.633C46.2913 17.4418 46.3207 17.3463 46.3207 17.3463H49.6952C49.6952 17.3463 49.6657 17.4933 49.6069 17.7874C49.5628 18.0667 49.4599 18.4343 49.2982 18.8901C49.1364 19.3313 48.8865 19.8091 48.5483 20.3238C48.2248 20.8237 47.791 21.3015 47.247 21.7574C46.7177 22.1985 46.0487 22.5661 45.24 22.8601C44.446 23.1395 43.4829 23.2792 42.3507 23.2792Z" fill="#EFEFEF"/>
<path d="M56.814 23.2792C55.5054 23.2792 54.3953 22.9998 53.4836 22.4411C52.572 21.8676 51.8736 21.1251 51.3884 20.2135C50.9179 19.2871 50.6826 18.2873 50.6826 17.2139C50.6826 16.1406 50.9179 15.1481 51.3884 14.2365C51.8736 13.3101 52.572 12.5676 53.4836 12.0088C54.3953 11.4354 55.5054 11.1487 56.814 11.1487C58.1226 11.1487 59.2327 11.4354 60.1444 12.0088C61.056 12.5676 61.7471 13.3101 62.2176 14.2365C62.7028 15.1481 62.9454 16.1406 62.9454 17.2139C62.9454 18.2873 62.7028 19.2871 62.2176 20.2135C61.7471 21.1251 61.056 21.8676 60.1444 22.4411C59.2327 22.9998 58.1226 23.2792 56.814 23.2792ZM56.814 20.5443C57.4021 20.5443 57.8947 20.3899 58.2917 20.0811C58.7034 19.7724 59.0195 19.368 59.2401 18.8681C59.4607 18.3535 59.5709 17.8021 59.5709 17.2139C59.5709 16.6111 59.4607 16.0597 59.2401 15.5598C59.0195 15.0599 58.7034 14.6555 58.2917 14.3467C57.8947 14.038 57.4021 13.8836 56.814 13.8836C56.2259 13.8836 55.7259 14.038 55.3142 14.3467C54.9025 14.6555 54.5864 15.0599 54.3659 15.5598C54.16 16.0597 54.0571 16.6111 54.0571 17.2139C54.0571 17.8021 54.16 18.3535 54.3659 18.8681C54.5864 19.368 54.9025 19.7724 55.3142 20.0811C55.7259 20.3899 56.2259 20.5443 56.814 20.5443Z" fill="#EFEFEF"/>
<path d="M66.3133 9.78125C65.7251 9.78125 65.2473 9.59746 64.8797 9.22986C64.5121 8.84757 64.3283 8.39911 64.3283 7.88448C64.3283 7.34045 64.5121 6.88464 64.8797 6.51704C65.2473 6.13475 65.7251 5.9436 66.3133 5.9436C66.872 5.9436 67.3425 6.13475 67.7248 6.51704C68.1071 6.88464 68.2983 7.34045 68.2983 7.88448C68.2983 8.39911 68.1071 8.84757 67.7248 9.22986C67.3425 9.59746 66.872 9.78125 66.3133 9.78125ZM64.6371 23.0586V11.3692H67.9895V23.0586H64.6371Z" fill="#EFEFEF"/>
<path d="M70.3952 23.0586V11.3692H73.7477V13.0455H73.8579C73.9903 12.8102 74.1814 12.5455 74.4314 12.2515C74.696 11.9574 75.0416 11.7001 75.468 11.4795C75.9091 11.259 76.4678 11.1487 77.1442 11.1487C78.0558 11.1487 78.7983 11.3619 79.3718 11.7883C79.9452 12.2 80.3643 12.7367 80.6289 13.3983C80.8936 14.0453 81.0259 14.729 81.0259 15.4495V23.0586H77.6735V16.0229C77.6735 15.4642 77.5191 14.9716 77.2104 14.5452C76.9163 14.1188 76.4384 13.9056 75.7768 13.9056C75.2768 13.9056 74.8798 14.0232 74.5858 14.2585C74.2917 14.4938 74.0785 14.7952 73.9462 15.1628C73.8138 15.5304 73.7477 15.92 73.7477 16.3317V23.0586H70.3952Z" fill="#EFEFEF"/>
<path d="M86.1394 23.0591V9.69347H81.1328V6.73804H94.5425V9.69347H89.5359V23.0591H86.1394Z" fill="#0FBB87"/>
<path d="M95.8668 23.0591V6.73804H102.483C103.689 6.73804 104.718 6.95124 105.571 7.37764C106.439 7.80405 107.1 8.39219 107.556 9.14208C108.027 9.89196 108.262 10.7595 108.262 11.7446C108.262 12.818 107.99 13.759 107.446 14.5677C106.902 15.3617 106.13 15.9425 105.13 16.3101L108.681 23.0591H104.91L101.667 16.7733H99.2634V23.0591H95.8668ZM102.439 9.67141H99.2634V13.9943H102.439C103.189 13.9943 103.777 13.7884 104.204 13.3767C104.63 12.965 104.843 12.4577 104.843 11.8549C104.843 11.2373 104.63 10.7227 104.204 10.311C103.777 9.88461 103.189 9.67141 102.439 9.67141Z" fill="#0FBB87"/>
<path d="M19.2746 2.09632L21.9231 4.9305L25.4912 3.41042L23.6149 6.80463L26.1633 9.72841L22.355 8.99272L20.3614 12.3199L19.8846 8.47087L16.1039 7.60346L19.6178 5.9602L19.2746 2.09632Z" fill="#0FBB87"/>
<path fill-rule="evenodd" clip-rule="evenodd" d="M14.5852 2.00039C14.08 1.94096 13.566 1.9104 13.0449 1.9104C5.84038 1.9104 0 7.75078 0 14.9553C0 22.1597 5.84038 28.0001 13.0449 28.0001C20.2493 28.0001 26.0897 22.1597 26.0897 14.9553C26.0897 14.6028 26.0757 14.2535 26.0483 13.9081H20.4626L20.4842 14.5718C20.4907 14.6989 20.4939 14.8267 20.4939 14.9554C20.4939 19.0694 17.1589 22.4044 13.0449 22.4044C8.9309 22.4044 5.59585 19.0694 5.59585 14.9554C5.59585 10.8414 8.9309 7.50635 13.0449 7.50635C13.1512 7.50635 13.257 7.50857 13.3622 7.51298L14.5852 7.53231V2.00039Z" fill="#0FBB87"/>
</svg>
