<svg
  width="111"
  height="27"
  viewBox="0 0 111 27"
  fill="none"
  xmlns="http://www.w3.org/2000/svg"
>
  <path d="M41.5884 21.6965C40.3716 21.723 39.1638 21.4827 38.0499 20.9925C37.0904 20.5367 36.2368 19.8854 35.5439 19.0804C34.8745 18.2814 34.3603 17.3644 34.0277 16.3765C33.3529 14.4028 33.3529 12.2608 34.0277 10.2871C34.3572 9.30464 34.8719 8.39441 35.5439 7.60565C36.229 6.79231 37.0845 6.13953 38.0499 5.69353C40.0927 4.85846 42.3635 4.76531 44.4678 5.43028C45.1981 5.66687 45.8768 6.04014 46.4677 6.53021C46.9765 6.93107 47.4152 7.41382 47.7655 7.95868C48.0738 8.4014 48.3248 8.88138 48.5124 9.38716C48.6502 9.74237 48.7533 10.11 48.8206 10.485L48.9083 10.8932H45.5453C45.5453 10.8932 45.5167 10.7973 45.4575 10.6075C45.3947 10.3545 45.2986 10.1109 45.1718 9.88304C45.0034 9.56135 44.7804 9.27134 44.5127 9.02596C44.1842 8.71528 43.7952 8.47562 43.3699 8.32192C42.8102 8.10307 42.2114 8.00166 41.6109 8.02398C40.6963 7.99321 39.7982 8.27221 39.062 8.81577C38.3879 9.33038 37.8597 10.012 37.5295 10.7932C37.1926 11.5934 37.0204 12.4533 37.0234 13.3216C37.0219 14.1963 37.1939 15.0626 37.5295 15.8704C37.8651 16.6569 38.3944 17.3456 39.0682 17.8723C39.8088 18.3998 40.7021 18.6694 41.6109 18.6396C42.2101 18.658 42.8073 18.561 43.3699 18.3539C43.7946 18.2001 44.1835 17.9612 44.5127 17.6519C44.773 17.3999 44.9951 17.1111 45.1718 16.7948C45.294 16.5641 45.3899 16.3204 45.4575 16.0683C45.5167 15.8786 45.5453 15.7826 45.5453 15.7826H48.9083L48.8206 16.2234C48.7497 16.5976 48.6466 16.9649 48.5124 17.3213C48.3188 17.8244 48.0682 18.3037 47.7655 18.7498C47.4076 19.2888 46.97 19.7704 46.4677 20.1783C45.8698 20.658 45.1931 21.0301 44.4678 21.2782C43.5381 21.5776 42.5648 21.719 41.5884 21.6965V21.6965Z" fill="white" />
  <path d="M56.5812 21.6964C55.2752 21.6964 54.1684 21.4175 53.261 20.8597C52.3803 20.3182 51.6597 19.5518 51.1734 18.6395C50.7034 17.7142 50.4619 16.6897 50.4694 15.6519C50.4601 14.6204 50.7017 13.6021 51.1734 12.6848C51.6517 11.7667 52.3741 10.9984 53.261 10.4645C54.1698 9.89312 55.2765 9.60742 56.5812 9.60742C57.8859 9.60742 58.9919 9.89312 59.8993 10.4645C60.7837 10.9946 61.4997 11.7644 61.9645 12.6848C62.45 13.5979 62.6997 14.6178 62.691 15.6519C62.6977 16.6923 62.4482 17.7183 61.9645 18.6395C61.4917 19.5542 60.7775 20.322 59.8993 20.8597C58.9919 21.4175 57.8859 21.6964 56.5812 21.6964ZM56.5812 18.97C57.1099 18.9885 57.629 18.8258 58.0525 18.5089C58.4682 18.1954 58.794 17.778 58.9974 17.2987C59.2194 16.7783 59.332 16.2177 59.328 15.6519C59.3351 15.0851 59.2224 14.5233 58.9974 14.003C58.7935 13.5241 58.4677 13.1069 58.0525 12.7929C57.6286 12.4768 57.1097 12.3142 56.5812 12.3317C56.0433 12.3149 55.515 12.4771 55.0793 12.7929C54.6646 13.1074 54.339 13.5245 54.1344 14.003C53.9237 14.5269 53.8189 15.0873 53.8263 15.6519C53.8218 16.2156 53.9264 16.7748 54.1344 17.2987C54.3385 17.7776 54.6642 18.1947 55.0793 18.5089C55.5135 18.8285 56.0422 18.9937 56.5812 18.9782V18.97Z" fill="white" />
  <path d="M66.6235 9.03602C66.3604 9.04633 66.098 9.00278 65.8523 8.90803C65.6067 8.81328 65.383 8.66934 65.195 8.48504C64.8428 8.12312 64.6458 7.63807 64.6458 7.13309C64.6458 6.62811 64.8428 6.14307 65.195 5.78114C65.3801 5.59156 65.6028 5.44278 65.8488 5.34438C66.0948 5.24598 66.3587 5.20012 66.6235 5.20975C66.8847 5.20419 67.1443 5.25199 67.3864 5.35024C67.6285 5.44849 67.8481 5.59511 68.0315 5.78114C68.2123 5.95687 68.356 6.16705 68.4541 6.39926C68.5522 6.63148 68.6027 6.881 68.6027 7.13309C68.6027 7.38518 68.5522 7.63471 68.4541 7.86692C68.356 8.09913 68.2123 8.30931 68.0315 8.48504C67.8452 8.66586 67.6248 8.80773 67.383 8.90233C67.1412 8.99694 66.883 9.04239 66.6235 9.03602Z" fill="white" />
  <path d="M68.2948 9.82568H64.9542V21.4759H68.2948V9.82568Z" fill="white" />
  <path d="M70.7048 21.476V9.8258H74.0454V11.4971H74.1556C74.3212 11.2161 74.5125 10.9511 74.7269 10.7053C75.0224 10.3892 75.3721 10.1286 75.7595 9.93599C76.2838 9.69898 76.8559 9.58653 77.4308 9.60744C78.3396 9.60744 79.0797 9.81967 79.6511 10.2441C80.2159 10.6455 80.6514 11.2029 80.9041 11.8481C81.168 12.496 81.3025 13.1892 81.3 13.8888V21.4719H77.9594V14.4643C77.9679 13.936 77.8054 13.4192 77.4961 12.9909C77.2043 12.5664 76.7268 12.3542 76.0677 12.3542C75.641 12.3287 75.2188 12.4528 74.8739 12.7052C74.5802 12.9397 74.3588 13.2523 74.2351 13.6072C74.1004 13.9809 74.0314 14.3751 74.0311 14.7724V21.476H70.7048Z" fill="white" />
  <path d="M87.969 21.4762V8.16282H82.9795V5.20996H96.3439V8.16282H91.3544V21.4823L87.969 21.4762Z" fill="#00D770" />
  <path d="M98.2396 21.476V5.20975H104.835C105.897 5.17972 106.951 5.39846 107.912 5.84849C108.728 6.23021 109.415 6.84062 109.89 7.60551C110.366 8.38693 110.607 9.28859 110.586 10.2033C110.606 11.2025 110.321 12.1842 109.769 13.0174C109.204 13.8261 108.395 14.4343 107.461 14.754L111 21.4882H107.251L104.021 15.2234H101.625V21.4882L98.2396 21.476ZM104.79 8.13405H101.625V12.448H104.79C105.537 12.448 106.125 12.244 106.549 11.8358C106.756 11.6418 106.919 11.4066 107.029 11.1454C107.138 10.8842 107.192 10.6028 107.186 10.3196C107.194 10.0319 107.142 9.74564 107.032 9.47951C106.922 9.21337 106.758 8.97328 106.549 8.77482C106.125 8.34628 105.537 8.13405 104.79 8.13405Z" fill="#00D770" />
  <path opacity="0.6" d="M13.4338 6.56079C14.5091 6.76711 15.5197 7.22635 16.3824 7.90055C17.245 8.57475 17.9348 9.44455 18.3947 10.4381C18.4682 10.5911 18.5355 10.7503 18.5988 10.9136L24.7208 8.68718C24.5359 8.19172 24.3213 7.70788 24.078 7.2383L19.2559 10.0157L19.2171 9.95036C18.6272 8.9347 17.7846 8.08886 16.7713 7.49494C15.7579 6.90103 14.6083 6.57923 13.4338 6.56079V6.56079Z" fill="#00D770" />
  <path opacity="0.6" d="M24.7167 18.003L18.5947 15.7766C18.5335 15.9378 18.4661 16.097 18.3906 16.2521C17.9301 17.2452 17.2402 18.1147 16.3776 18.7888C15.5151 19.4629 14.5047 19.9224 13.4297 20.1294C14.6055 20.1112 15.7565 19.7889 16.7707 19.1938C17.7849 18.5988 18.6277 17.7512 19.2171 16.7337L19.2559 16.6663L24.08 19.4519C24.3215 18.9823 24.5341 18.4984 24.7167 18.003V18.003Z" fill="#00D770" />
  <path opacity="0.2" d="M17.6804 15.3582C17.6375 15.5031 17.5926 15.6337 17.5457 15.7561C17.1939 16.7047 16.637 17.5639 15.915 18.2726C15.1929 18.9812 14.3234 19.5218 13.3684 19.8559C13.1141 19.9464 12.8544 20.0213 12.5909 20.0803C12.8385 20.0664 13.0851 20.0392 13.3297 19.9987C14.3969 19.8059 15.4021 19.3591 16.2602 18.696C17.1183 18.0328 17.8042 17.1729 18.2599 16.1888C18.3395 16.0153 18.415 15.8337 18.4803 15.6541L18.5069 15.5827L23.7616 17.4948C23.9491 16.9192 24.0971 16.3315 24.2044 15.7357L17.862 14.6174C17.8157 14.8676 17.755 15.115 17.6804 15.3582V15.3582Z" fill="#00D770" />
  <path opacity="0.2" d="M23.7596 9.18309L18.5069 11.1034L18.4803 11.0319C18.4154 10.85 18.3411 10.6716 18.2579 10.4973C17.8019 9.51455 17.1161 8.65603 16.2583 7.9943C15.4005 7.33257 14.396 6.88709 13.3297 6.6955C13.0852 6.65228 12.8386 6.6223 12.5909 6.60571C12.8544 6.66471 13.1141 6.73967 13.3684 6.83019C14.3242 7.1637 15.1945 7.70408 15.9173 8.41276C16.6401 9.12144 17.1975 9.98094 17.5498 10.9299C17.5967 11.0523 17.6416 11.183 17.6845 11.3278C17.7587 11.5712 17.8193 11.8185 17.8661 12.0686L24.2085 10.9524C24.1 10.3529 23.95 9.76174 23.7596 9.18309Z" fill="#00D770" />
  <path d="M24.8616 6.60568C23.6866 4.5936 22.0045 2.92478 19.9832 1.76571C17.9619 0.606638 15.672 -0.00217468 13.342 5.83674e-06C13.1501 5.83674e-06 12.9603 5.8369e-06 12.7787 0.0122499C12.5971 0.024494 12.4134 0.030616 12.2114 0.0469414H12.14C11.7931 0.0775516 11.438 0.124487 11.089 0.183667C8.31208 0.657585 5.75662 1.99899 3.78933 4.0154C1.82204 6.03182 0.544065 8.61959 0.138772 11.4074C-0.0462572 12.6877 -0.0462572 13.988 0.138772 15.2684C0.545859 18.0554 1.82443 20.6422 3.7914 22.6583C5.75837 24.6744 8.31285 26.0164 11.089 26.4921C11.438 26.5533 11.791 26.5982 12.14 26.6288H12.2155C12.4073 26.6451 12.5971 26.6574 12.7787 26.6635C12.9603 26.6696 13.1501 26.6757 13.342 26.6757C15.671 26.679 17.9602 26.0717 19.9815 24.9145C22.0027 23.7572 23.6853 22.0905 24.8616 20.0803L19.3109 16.8764C18.6945 17.9105 17.8207 18.7673 16.7746 19.3631C15.7285 19.9589 14.5458 20.2735 13.342 20.2762C13.0801 20.2764 12.8185 20.2614 12.5583 20.2313C12.4155 20.217 12.2665 20.1946 12.1196 20.168H12.1053C11.7467 20.1044 11.3938 20.0116 11.0503 19.8905C10.0139 19.5286 9.0784 18.9253 8.32119 18.1305C7.56397 17.3357 7.00672 16.3721 6.69547 15.3194C6.58151 14.9388 6.50161 14.5489 6.45671 14.1541C6.39413 13.6165 6.39413 13.0735 6.45671 12.5359C6.56663 11.6007 6.86664 10.698 7.33828 9.88301C7.84098 9.01048 8.52826 8.25833 9.35203 7.67919C10.1758 7.10004 11.1162 6.70789 12.1073 6.53017H12.1196C12.2686 6.50364 12.4155 6.4812 12.5583 6.46691C12.8185 6.43676 13.0801 6.42177 13.342 6.42202C14.5447 6.42302 15.7268 6.73558 16.7728 7.32925C17.8189 7.92291 18.6933 8.77743 19.3109 9.80954L24.8616 6.60568Z" fill="#00D770" />
</svg>
